<svg width="1600" height="1000" viewBox="0 0 1600 1000" fill="none" xmlns="http://www.w3.org/2000/svg">
  <rect width="1600" height="1000" fill="#0E0F12"/>
  <rect width="1600" height="1000" fill="url(#sky)"/>
  <circle cx="1268" cy="174" r="84" fill="#D9B15F" fill-opacity="0.8"/>
  <path d="M0 760L154 698L268 714L434 626L544 674L706 572L856 632L1036 526L1192 612L1374 504L1600 618V1000H0V760Z" fill="#141A25"/>
  <rect x="208" y="344" width="198" height="358" fill="#1B2230"/>
  <rect x="446" y="276" width="214" height="426" fill="#20293A"/>
  <rect x="700" y="232" width="174" height="470" fill="#1A2131"/>
  <rect x="910" y="298" width="224" height="404" fill="#222D40"/>
  <rect x="1170" y="258" width="168" height="444" fill="#1B2230"/>
  <rect x="1358" y="326" width="98" height="376" fill="#20293A"/>
  <g fill="#EFD89B">
    <rect x="238" y="378" width="24" height="34"/>
    <rect x="286" y="378" width="24" height="34"/>
    <rect x="334" y="378" width="24" height="34"/>
    <rect x="238" y="438" width="24" height="34"/>
    <rect x="334" y="438" width="24" height="34"/>
    <rect x="488" y="314" width="26" height="36"/>
    <rect x="542" y="314" width="26" height="36"/>
    <rect x="596" y="314" width="26" height="36"/>
    <rect x="488" y="374" width="26" height="36"/>
    <rect x="596" y="374" width="26" height="36"/>
    <rect x="740" y="270" width="22" height="34"/>
    <rect x="792" y="270" width="22" height="34"/>
    <rect x="740" y="326" width="22" height="34"/>
    <rect x="792" y="326" width="22" height="34"/>
    <rect x="952" y="336" width="28" height="36"/>
    <rect x="1010" y="336" width="28" height="36"/>
    <rect x="1068" y="336" width="28" height="36"/>
    <rect x="952" y="398" width="28" height="36"/>
    <rect x="1068" y="398" width="28" height="36"/>
    <rect x="1200" y="296" width="22" height="34"/>
    <rect x="1248" y="296" width="22" height="34"/>
    <rect x="1200" y="354" width="22" height="34"/>
    <rect x="1248" y="354" width="22" height="34"/>
  </g>
  <rect x="910" y="678" width="224" height="24" fill="#D9B15F"/>
  <text x="104" y="140" fill="#F2DBA1" font-family="Georgia, serif" font-size="62" letter-spacing="10">WESTLANDS SKYLINE APARTMENT</text>
  <text x="106" y="202" fill="#FFFFFF" fill-opacity="0.68" font-family="Arial, sans-serif" font-size="28" letter-spacing="4">High-rise urban luxury with investor-ready polish</text>
  <defs>
    <linearGradient id="sky" x1="800" y1="0" x2="800" y2="1000" gradientUnits="userSpaceOnUse">
      <stop stop-color="#2E3B57"/>
      <stop offset="0.5" stop-color="#171B26"/>
      <stop offset="1" stop-color="#090909"/>
    </linearGradient>
  </defs>
</svg>
